# xmcd
#
# Track frame offsets: 
#        150
#        2510
#        19490
#        34615
#        49932
#        54034
#        74967
#        89100
#        104135
#        118547
#        120716
#        137389
#        154570
#        166147
#        191512
#        211385
#
# Disc length: 3318 seconds
#
# Revision: 0
# Processed by: cddbd v1.5.2PL0 Copyright (c) Steve Scherf et al.
# Submitted via: ExactAudioCopy v0.95b4
#
DISCID=dd0cf410
DTITLE=Mountain Heart - Road That Never Ends (The Live Album)
DYEAR=2007
DGENRE=Bluegrass
TTITLE0=Welcome
TTITLE1=Road That Never Ends
TTITLE2=I'm Just Here To Ride The Train
TTITLE3=While The Getting's Good
TTITLE4=Adam Rambles
TTITLE5=Who's The Fool Now
TTITLE6=God And Everybody
TTITLE7=Devil's Courthouse
TTITLE8=The Gospel Train
TTITLE9=Done It A Thousand Times
TTITLE10=It Works Both Ways
TTITLE11=Heart Like A Road Sign
TTITLE12=Band Introduction
TTITLE13=Whipping Post
TTITLE14=Mountain Man
TTITLE15=#6 Barn Dance
EXTD=
EXTT0=
EXTT1=
EXTT2=
EXTT3=
EXTT4=
EXTT5=
EXTT6=
EXTT7=
EXTT8=
EXTT9=
EXTT10=
EXTT11=
EXTT12=
EXTT13=
EXTT14=
EXTT15=
PLAYORDER=
